<svg xmlns="http://www.w3.org/2000/svg" width="343" height="136" fill="none" viewBox="0 0 343 136"><rect width="137" height="78" x="26.5" y="34" fill="#C4CBD5" rx="4"/><path fill="#000" d="M26.5 40h137v14h-137z"/><path fill="#03121A" d="M32.051 63h.309l-.762-2.118h-.312L30.524 63h.306l.21-.609h.798l.213.609Zm-.606-1.827s.045.192.081.3l.234.672h-.642l.237-.672c.036-.108.084-.3.084-.3h.006Zm1.176 1.077c0 .471.34.786.834.786.495 0 .834-.315.834-.786v-1.368h-.297v1.362c0 .33-.213.519-.54.519-.324 0-.534-.189-.534-.513v-1.368h-.297v1.368Zm2.666.75h.297v-1.86h.726v-.258h-1.75v.258h.727V63Zm1.325 0h.297v-.93h1.098V63h.297v-2.118h-.297v.93H36.91v-.93h-.297V63Zm2.124-1.074c0 .624.477 1.11 1.089 1.11s1.086-.486 1.086-1.11c0-.609-.474-1.08-1.086-1.08a1.07 1.07 0 0 0-1.09 1.08Zm.306 0c0-.462.35-.81.783-.81.432 0 .78.348.78.81 0 .477-.348.837-.78.837-.432 0-.783-.36-.783-.837ZM41.344 63h.297v-.843h.453l.447.843h.336l-.45-.822a.615.615 0 0 0-.063-.096v-.006c.23-.075.38-.303.38-.573 0-.279-.14-.492-.356-.573-.081-.03-.174-.048-.396-.048h-.648V63Zm.297-1.101v-.759h.342c.165 0 .234.018.29.048.109.06.169.171.169.327 0 .237-.144.384-.375.384h-.426ZM43.266 63h.297v-2.118h-.297V63Zm.708 0h1.554v-.258h-1.026c-.102 0-.16.006-.16.006v-.006s.073-.075.154-.192l1.02-1.473v-.195h-1.488v.258h.96c.102 0 .159-.009.159-.009v.006s-.072.075-.153.195l-1.02 1.47V63Zm1.987 0h1.28v-.258h-.983v-.681h.759v-.258h-.76v-.663h.934v-.258h-1.23V63Zm1.72 0h.702c.648 0 1.074-.39 1.074-1.062 0-.669-.426-1.056-1.074-1.056h-.702V63Zm.297-.258V61.14h.384c.474 0 .789.279.789.798 0 .522-.312.804-.79.804h-.383Zm2.532.015s.252.279.702.279c.42 0 .672-.27.672-.597 0-.687-1.026-.57-1.026-1.008 0-.168.159-.309.384-.309.27 0 .465.183.465.183l.135-.246s-.207-.213-.6-.213c-.4 0-.684.261-.684.591 0 .651 1.026.552 1.026 1.011 0 .201-.168.312-.366.312-.315 0-.54-.228-.54-.228l-.168.225Zm1.8.243h.296v-2.118h-.297V63Zm.731-1.062c0 .648.472 1.098 1.042 1.098.42 0 .65-.258.65-.258h.007s-.004.045-.004.09V63h.262v-1.065h-.615v.258h.344v.306s-.233.264-.6.264c-.444 0-.78-.339-.78-.831 0-.453.3-.816.798-.816.36 0 .597.207.597.207l.15-.222s-.264-.255-.77-.255c-.618 0-1.08.48-1.08 1.092ZM55.462 63h.298v-1.374c0-.12-.021-.309-.021-.309h.006s.099.192.177.309L56.866 63h.29v-2.118h-.296v1.377c0 .117.02.306.02.306h-.005s-.1-.192-.177-.306l-.942-1.377h-.294V63Zm3.534 0h.31l-.763-2.118h-.312L57.468 63h.306l.21-.609h.798l.213.609Zm-.606-1.827s.045.192.081.3l.234.672h-.642l.237-.672c.036-.108.084-.3.084-.3h.006ZM59.94 63h.297v-1.86h.726v-.258h-1.749v.258h.726V63Zm1.296-.75c0 .471.339.786.834.786.495 0 .834-.315.834-.786v-1.368h-.298v1.362c0 .33-.212.519-.54.519-.324 0-.534-.189-.534-.513v-1.368h-.296v1.368Zm2.212.75h.297v-.843h.453l.447.843h.336l-.45-.822c-.039-.069-.063-.096-.063-.096v-.006c.231-.075.381-.303.381-.573 0-.279-.14-.492-.357-.573-.08-.03-.174-.048-.396-.048h-.648V63Zm.297-1.101v-.759h.342c.165 0 .234.018.291.048.108.06.168.171.168.327 0 .237-.144.384-.375.384h-.426ZM65.37 63h1.281v-.258h-.984v-.681h.759v-.258h-.759v-.663h.933v-.258h-1.23V63Z"/><path fill="#FFFBFB" d="M26.558 63.702H163.5v16.303H26.558z"/><path fill="url(#paint0_linear_836_30670)" d="M26.558 65.514H163.5v1.811H26.558z"/><path fill="url(#paint1_linear_836_30670)" d="M26.558 63.702H163.5v1.812H26.558v-1.812Z"/><path fill="url(#paint2_linear_836_30670)" d="M26.558 67.325H163.5v1.812H26.558v-1.812Z"/><path fill="url(#paint3_linear_836_30670)" d="M26.558 70.948H163.5v1.811H26.558v-1.811Z"/><path fill="url(#paint4_linear_836_30670)" d="M26.558 74.57H163.5v1.812H26.558v-1.811Z"/><path fill="url(#paint5_linear_836_30670)" d="M26.558 78.194H163.5v1.811H26.558v-1.811Z"/><path fill="url(#paint6_linear_836_30670)" d="M26.558 69.137H163.5v1.811H26.558z"/><path fill="url(#paint7_linear_836_30670)" d="M26.558 72.76H163.5v1.811H26.558z"/><path fill="url(#paint8_linear_836_30670)" d="M26.558 76.382H163.5v1.811H26.558z"/><path fill="#000" d="M139.892 75.17h1.259V70.33h-1.24a.41.41 0 0 1-.293-.117.409.409 0 0 1-.117-.293c0-.114.039-.21.117-.288a.4.4 0 0 1 .293-.122h2.061v5.659h.82v-1.71c0-.11.039-.206.117-.287a.4.4 0 0 1 .293-.122c.114 0 .21.04.288.122a.381.381 0 0 1 .122.288v2.12c0 .113-.04.21-.122.292a.39.39 0 0 1-.288.117h-3.31a.4.4 0 0 1-.293-.122.427.427 0 0 1-.118-.298c0-.11.04-.205.118-.283a.407.407 0 0 1 .293-.117Zm9.384.82h-3.73v-2.832c0-.228.08-.423.239-.586a.795.795 0 0 1 .581-.244h2.49v-1.997h-2.929a.398.398 0 0 1-.41-.41c0-.114.039-.21.117-.288a.39.39 0 0 1 .293-.122h2.929c.228 0 .424.081.586.244.163.16.245.351.245.576v1.997a.805.805 0 0 1-.245.59.806.806 0 0 1-.586.24h-2.49v2.012h2.91c.111 0 .207.04.288.122a.382.382 0 0 1 .123.288.398.398 0 0 1-.123.293.4.4 0 0 1-.288.117Zm6.455-5.659v1.538c0 .358-.11.648-.332.87.228.253.342.53.342.83v1.6a.793.793 0 0 1-.244.582.808.808 0 0 1-.586.24h-2.9a.407.407 0 0 1-.293-.118.408.408 0 0 1-.117-.293c0-.114.039-.21.117-.288a.399.399 0 0 1 .293-.122h2.89v-1.602a.397.397 0 0 0-.122-.293.376.376 0 0 0-.288-.127h-1.65a.398.398 0 0 1-.41-.41c0-.114.039-.21.117-.288a.399.399 0 0 1 .293-.122h1.66a.4.4 0 0 0 .288-.117.4.4 0 0 0 .122-.293v-1.587h-2.93a.41.41 0 0 1-.293-.117.409.409 0 0 1-.117-.293c0-.114.039-.21.117-.288a.402.402 0 0 1 .293-.122h2.93c.228 0 .422.081.581.244.16.16.239.351.239.576Z"/><path stroke="#E7090E" d="M138 66.5h20v11h-20z"/><path stroke="#E7090E" stroke-linecap="round" d="M148 21.5v45"/><path fill="#0264C8" d="M63.017 17.087s.924 1.045 2.585 1.045c1.738 0 2.75-1.232 2.75-2.563 0-1.353-1.056-2.123-2.134-2.277l1.914-2.211v-.891h-4.774v1.221h2.332c.462 0 .693-.033.693-.033v.022s-.253.231-.561.594l-1.43 1.694.319.726h.539c.913 0 1.672.385 1.672 1.21 0 .671-.594 1.166-1.408 1.166-1.034 0-1.771-.792-1.771-.792l-.726 1.089Zm8.967-1.892c0 1.738.968 2.937 2.486 2.937 1.287 0 1.76-.957 1.76-.957h.022s-.022.154-.022.363V18h1.32v-7.81h-1.397v2.464c0 .176.01.319.01.319h-.021s-.385-.715-1.617-.715c-1.485 0-2.541 1.155-2.541 2.937Zm1.408 0c0-1.111.638-1.738 1.408-1.738.935 0 1.397.858 1.397 1.727 0 1.243-.682 1.771-1.408 1.771-.825 0-1.397-.693-1.397-1.76Zm5.701-3.762h1.386V10.19h-1.386v1.243Zm0 6.567h1.397v-5.61h-1.397V18Zm3.505.759-.418 1.067a4.47 4.47 0 0 0 1.99.484c1.464 0 2.96-.726 2.96-2.651V12.39h-1.31v.429c0 .088.012.154.012.154h-.033s-.44-.715-1.661-.715c-1.617 0-2.486 1.254-2.486 2.794s.913 2.838 2.519 2.838c.748 0 1.232-.264 1.562-.759h.022s-.022.165-.022.297v.33c0 1.001-.726 1.364-1.584 1.364-.847 0-1.551-.363-1.551-.363Zm1.87-2.046c-.902 0-1.408-.726-1.408-1.705 0-.946.473-1.562 1.32-1.562.759 0 1.386.341 1.386 1.617 0 1.265-.627 1.65-1.298 1.65Zm4.197-5.28h1.385V10.19h-1.385v1.243Zm0 6.567h1.396v-5.61h-1.397V18Zm3.174-2.057c0 1.881 1.551 2.112 2.332 2.112.264 0 .43-.033.43-.033v-1.221s-.1.022-.254.022c-.385 0-1.11-.132-1.11-1.056v-2.178h1.275v-1.111h-1.276v-1.617h-1.364v1.617h-.759v1.111h.726v2.354Zm3.432 1.364s.78.825 2.178.825c1.33 0 2.145-.748 2.145-1.683 0-1.804-2.728-1.705-2.728-2.497 0-.352.352-.506.715-.506a2.13 2.13 0 0 1 1.375.484l.517-1.034s-.616-.638-1.881-.638c-1.21 0-2.145.605-2.145 1.65 0 1.804 2.728 1.694 2.728 2.53 0 .33-.341.506-.737.506-.913 0-1.53-.616-1.53-.616l-.637.979Zm7.703-2.112c0 1.727 1.375 2.937 3.091 2.937 1.705 0 3.08-1.21 3.08-2.937 0-1.716-1.375-2.937-3.091-2.937-1.705 0-3.08 1.221-3.08 2.937Zm1.419 0c0-1.034.759-1.749 1.672-1.749.902 0 1.661.715 1.661 1.749 0 1.045-.759 1.749-1.661 1.749-.913 0-1.672-.704-1.672-1.749ZM110.267 18h1.397v-2.574c0-.264.022-.517.099-.748.209-.671.759-1.144 1.507-1.144.715 0 .891.462.891 1.144V18h1.386v-3.608c0-1.485-.704-2.134-1.947-2.134-1.133 0-1.749.693-1.991 1.166h-.022s.022-.176.022-.385v-.649h-1.342V18Zm9.663-2.057c0 1.881 1.551 2.112 2.332 2.112.264 0 .429-.033.429-.033v-1.221s-.099.022-.253.022c-.385 0-1.111-.132-1.111-1.056v-2.178h1.276v-1.111h-1.276v-1.617h-1.364v1.617h-.759v1.111h.726v2.354ZM123.834 18h1.397v-2.574c0-.264.022-.506.088-.726.209-.682.781-1.166 1.518-1.166.715 0 .891.462.891 1.144V18h1.386v-3.608c0-1.485-.704-2.134-1.947-2.134-.979 0-1.661.572-1.936 1.111h-.022s.022-.198.022-.473V10.19h-1.397V18Zm6.351-2.805c0 1.595 1.155 2.937 3.014 2.937 1.397 0 2.255-.803 2.255-.803l-.539-1.001s-.715.616-1.617.616c-.836 0-1.595-.506-1.683-1.485h3.872s.033-.374.033-.539c0-1.485-.869-2.662-2.486-2.662-1.672 0-2.849 1.21-2.849 2.937Zm1.474-.693c.132-.726.627-1.166 1.342-1.166.616 0 1.089.407 1.111 1.166h-2.453ZM139.346 18h1.32v-.319c0-.22-.022-.385-.022-.385h.022s.506.836 1.672.836c1.485 0 2.574-1.155 2.574-2.937 0-1.738-.968-2.937-2.486-2.937-1.188 0-1.683.814-1.683.814h-.022s.022-.198.022-.473V10.19h-1.397V18Zm1.353-2.772c0-1.243.682-1.771 1.408-1.771.825 0 1.397.693 1.397 1.76 0 1.111-.638 1.738-1.408 1.738-.935 0-1.397-.858-1.397-1.727Zm4.899 1.155c0 1.122.902 1.749 1.903 1.749 1.276 0 1.716-.99 1.705-.99h.022s-.022.176-.022.396V18h1.287v-3.509c0-1.419-.858-2.233-2.332-2.233-1.331 0-2.2.693-2.2.693l.528 1.001s.737-.539 1.54-.539c.616 0 1.078.253 1.078.99v.077h-.187c-.913 0-3.322.121-3.322 1.903Zm1.408-.066c0-.781 1.155-.88 1.87-.88h.242v.132c0 .682-.528 1.474-1.265 1.474-.572 0-.847-.352-.847-.726Zm4.534-1.122c0 1.628 1.188 2.937 3.047 2.937 1.507 0 2.31-.913 2.31-.913l-.539-.99s-.704.715-1.65.715c-1.067 0-1.749-.814-1.749-1.76 0-.957.671-1.738 1.705-1.738.88 0 1.463.605 1.463.605l.616-.957s-.693-.836-2.156-.836c-1.859 0-3.047 1.342-3.047 2.937ZM157.941 18h1.397v-2.453h.726L161.549 18h1.606l-1.991-3.08v-.022l1.771-2.508h-1.551l-1.353 1.98h-.693v-4.18h-1.397V18Z"/><rect width="137" height="78" x="179.5" y="34" fill="#C4CBD5" rx="4"/><ellipse cx="248.5" cy="72" fill="#DCE2EB" rx="21" ry="27"/><path fill="#03121A" d="M287.826 104h.297l.102-1.335c.009-.129.006-.318.006-.318h.006s.066.204.114.318l.42.954h.264l.423-.954c.051-.117.114-.312.114-.312h.006s-.006.183.003.312l.105 1.335h.294l-.171-2.118h-.312l-.486 1.146a6.044 6.044 0 0 0-.105.285h-.006s-.057-.168-.105-.285l-.486-1.146h-.312l-.171 2.118Zm2.664 0h1.281v-.258h-.984v-.681h.759v-.258h-.759v-.663h.933v-.258h-1.23V104Zm1.654 0h.297l.102-1.335c.009-.129.006-.318.006-.318h.006s.066.204.114.318l.42.954h.264l.423-.954c.051-.117.114-.312.114-.312h.006s-.006.183.003.312l.105 1.335h.294l-.171-2.118h-.312l-.486 1.146a6.044 6.044 0 0 0-.105.285h-.006s-.057-.168-.105-.285l-.486-1.146h-.312l-.171 2.118Zm2.665 0h.759c.372 0 .681-.204.681-.603 0-.237-.126-.447-.348-.513v-.006a.496.496 0 0 0 .264-.456c0-.342-.258-.54-.615-.54h-.741V104Zm.297-1.227v-.633h.438c.204 0 .318.126.318.312s-.12.321-.312.321h-.444Zm0 .969v-.723h.474c.222 0 .366.147.366.363s-.135.36-.363.36h-.477Zm1.604.258h1.281v-.258h-.984v-.681h.759v-.258h-.759v-.663h.933v-.258h-1.23V104Zm1.72 0h.297v-.843h.453l.447.843h.336l-.45-.822a.615.615 0 0 0-.063-.096v-.006c.231-.075.381-.303.381-.573 0-.279-.141-.492-.357-.573-.081-.03-.174-.048-.396-.048h-.648V104Zm.297-1.101v-.759h.342c.165 0 .234.018.291.048.108.06.168.171.168.327 0 .237-.144.384-.375.384h-.426Zm2.233.858s.252.279.702.279c.42 0 .672-.27.672-.597 0-.687-1.026-.57-1.026-1.008 0-.168.159-.309.384-.309.27 0 .465.183.465.183l.135-.246s-.207-.213-.6-.213c-.399 0-.684.261-.684.591 0 .651 1.026.552 1.026 1.011 0 .201-.168.312-.366.312-.315 0-.54-.228-.54-.228l-.168.225Zm1.8.243h.297v-2.118h-.297V104Zm.873 0h.297v-1.374c0-.12-.021-.309-.021-.309h.006s.099.192.177.309l.945 1.374h.291v-2.118h-.297v1.377c0 .117.021.306.021.306h-.006s-.099-.192-.177-.306l-.942-1.377h-.294V104Zm2.126-1.071c0 .621.447 1.107 1.083 1.107.531 0 .822-.336.822-.336l-.159-.213s-.255.276-.654.276c-.471 0-.786-.384-.786-.837 0-.45.309-.81.783-.81.366 0 .612.231.612.231l.147-.222s-.261-.279-.771-.279c-.615 0-1.077.468-1.077 1.083Zm2.309 1.071h1.281v-.258h-.984v-.681h.759v-.258h-.759v-.663h.933v-.258h-1.23V104Z"/><path fill="#000" d="M295.827 65.502h.756v-2.903h-.744a.246.246 0 0 1-.176-.07.244.244 0 0 1-.07-.177c0-.068.023-.125.07-.172a.241.241 0 0 1 .176-.074h1.236v3.396h.492v-1.025c0-.067.024-.124.071-.173a.239.239 0 0 1 .175-.073.23.23 0 0 1 .173.073.23.23 0 0 1 .074.173v1.271a.24.24 0 0 1-.074.176.234.234 0 0 1-.173.07h-1.986a.241.241 0 0 1-.176-.073.254.254 0 0 1 0-.349.246.246 0 0 1 .176-.07Zm5.631.492h-2.238v-1.7c0-.136.048-.253.143-.35a.477.477 0 0 1 .349-.147h1.494v-1.198h-1.758a.24.24 0 0 1-.246-.246c0-.069.024-.126.07-.173a.235.235 0 0 1 .176-.074h1.758a.48.48 0 0 1 .352.147.469.469 0 0 1 .146.346v1.198a.485.485 0 0 1-.146.354.485.485 0 0 1-.352.144h-1.494v1.207h1.746c.066 0 .124.024.173.073a.23.23 0 0 1 .073.173.239.239 0 0 1-.073.176.243.243 0 0 1-.173.07Zm3.873-3.395v.923a.704.704 0 0 1-.199.521.73.73 0 0 1 .205.498v.961c0 .135-.049.25-.147.349a.482.482 0 0 1-.351.143h-1.74a.244.244 0 0 1-.176-.07.244.244 0 0 1-.07-.176c0-.068.023-.126.07-.173a.24.24 0 0 1 .176-.073h1.734v-.961a.24.24 0 0 0-.073-.176.227.227 0 0 0-.173-.076h-.99a.245.245 0 0 1-.176-.07.238.238 0 0 1-.07-.176c0-.068.023-.126.07-.173a.24.24 0 0 1 .176-.073h.996a.243.243 0 0 0 .246-.246v-.952h-1.758a.246.246 0 0 1-.176-.07.244.244 0 0 1-.07-.177c0-.068.023-.125.07-.172a.241.241 0 0 1 .176-.074h1.758a.47.47 0 0 1 .349.147.474.474 0 0 1 .143.346Zm2.757 3.149v-1.025h-1.483v-2.37a.24.24 0 0 1 .074-.176c.05-.051.11-.076.178-.076.067 0 .124.025.173.076a.24.24 0 0 1 .074.175v1.873h.984v-1.442c0-.068.023-.127.07-.176a.236.236 0 0 1 .176-.076c.068 0 .126.026.173.076a.239.239 0 0 1 .073.176v1.442c.068 0 .126.024.173.073a.23.23 0 0 1 .073.173.239.239 0 0 1-.073.175.236.236 0 0 1-.173.07v1.032a.239.239 0 0 1-.073.176.243.243 0 0 1-.173.07.246.246 0 0 1-.176-.07.244.244 0 0 1-.07-.176Z"/><path stroke="#E7090E" d="M293 59.5h18v10h-18z"/><path stroke="#E7090E" stroke-linecap="round" d="M302 22.5v37"/><path fill="#0264C8" d="M214.709 15.987h3.652V18h1.397v-2.013h1.012V14.81h-1.012v-4.62h-1.683l-3.366 4.928v.869Zm1.496-1.177v-.022l1.804-2.497c.209-.297.385-.715.385-.715h.022s-.055.429-.055.814v2.42h-2.156Zm7.779.385c0 1.738.968 2.937 2.486 2.937 1.287 0 1.76-.957 1.76-.957h.022s-.022.154-.022.363V18h1.32v-7.81h-1.397v2.464c0 .176.011.319.011.319h-.022s-.385-.715-1.617-.715c-1.485 0-2.541 1.155-2.541 2.937Zm1.408 0c0-1.111.638-1.738 1.408-1.738.935 0 1.397.858 1.397 1.727 0 1.243-.682 1.771-1.408 1.771-.825 0-1.397-.693-1.397-1.76Zm5.701-3.762h1.386V10.19h-1.386v1.243Zm0 6.567h1.397v-5.61h-1.397V18Zm3.505.759-.418 1.067a4.47 4.47 0 0 0 1.991.484c1.463 0 2.959-.726 2.959-2.651V12.39h-1.309v.429c0 .088.011.154.011.154h-.033s-.44-.715-1.661-.715c-1.617 0-2.486 1.254-2.486 2.794s.913 2.838 2.519 2.838c.748 0 1.232-.264 1.562-.759h.022s-.022.165-.022.297v.33c0 1.001-.726 1.364-1.584 1.364a3.77 3.77 0 0 1-1.551-.363Zm1.87-2.046c-.902 0-1.408-.726-1.408-1.705 0-.946.473-1.562 1.32-1.562.759 0 1.386.341 1.386 1.617 0 1.265-.627 1.65-1.298 1.65Zm4.197-5.28h1.386V10.19h-1.386v1.243Zm0 6.567h1.397v-5.61h-1.397V18Zm3.174-2.057c0 1.881 1.551 2.112 2.332 2.112.264 0 .429-.033.429-.033v-1.221s-.099.022-.253.022c-.385 0-1.111-.132-1.111-1.056v-2.178h1.276v-1.111h-1.276v-1.617h-1.364v1.617h-.759v1.111h.726v2.354Zm3.432 1.364s.781.825 2.178.825c1.331 0 2.145-.748 2.145-1.683 0-1.804-2.728-1.705-2.728-2.497 0-.352.352-.506.715-.506a2.13 2.13 0 0 1 1.375.484l.517-1.034s-.616-.638-1.881-.638c-1.21 0-2.145.605-2.145 1.65 0 1.804 2.728 1.694 2.728 2.53 0 .33-.341.506-.737.506-.913 0-1.529-.616-1.529-.616l-.638.979Zm7.703-2.112c0 1.727 1.375 2.937 3.091 2.937 1.705 0 3.08-1.21 3.08-2.937 0-1.716-1.375-2.937-3.091-2.937-1.705 0-3.08 1.221-3.08 2.937Zm1.419 0c0-1.034.759-1.749 1.672-1.749.902 0 1.661.715 1.661 1.749 0 1.045-.759 1.749-1.661 1.749-.913 0-1.672-.704-1.672-1.749ZM262.267 18h1.397v-2.574c0-.264.022-.517.099-.748.209-.671.759-1.144 1.507-1.144.715 0 .891.462.891 1.144V18h1.386v-3.608c0-1.485-.704-2.134-1.947-2.134-1.133 0-1.749.693-1.991 1.166h-.022s.022-.176.022-.385v-.649h-1.342V18Zm9.663-2.057c0 1.881 1.551 2.112 2.332 2.112.264 0 .429-.033.429-.033v-1.221s-.099.022-.253.022c-.385 0-1.111-.132-1.111-1.056v-2.178h1.276v-1.111h-1.276v-1.617h-1.364v1.617h-.759v1.111h.726v2.354ZM275.834 18h1.397v-2.574c0-.264.022-.506.088-.726.209-.682.781-1.166 1.518-1.166.715 0 .891.462.891 1.144V18h1.386v-3.608c0-1.485-.704-2.134-1.947-2.134-.979 0-1.661.572-1.936 1.111h-.022s.022-.198.022-.473V10.19h-1.397V18Zm6.351-2.805c0 1.595 1.155 2.937 3.014 2.937 1.397 0 2.255-.803 2.255-.803l-.539-1.001s-.715.616-1.617.616c-.836 0-1.595-.506-1.683-1.485h3.872s.033-.374.033-.539c0-1.485-.869-2.662-2.486-2.662-1.672 0-2.849 1.21-2.849 2.937Zm1.474-.693c.132-.726.627-1.166 1.342-1.166.616 0 1.089.407 1.111 1.166h-2.453ZM291.632 18h1.397v-4.411h1.199v-1.111h-1.199v-.22c0-.814.682-.913 1.078-.913.165 0 .286.022.286.022v-1.188s-.187-.033-.473-.033c-.781 0-2.288.242-2.288 2.079v.253h-.693v1.111h.693V18Zm3.528 0h1.397v-2.222c0-.33.033-.638.121-.913.264-.836.935-1.177 1.529-1.177.187 0 .33.022.33.022v-1.375s-.121-.022-.253-.022c-.858 0-1.529.638-1.782 1.441h-.022s.022-.187.022-.396v-.968h-1.342V18Zm3.9-2.805c0 1.727 1.375 2.937 3.091 2.937 1.705 0 3.08-1.21 3.08-2.937 0-1.716-1.375-2.937-3.091-2.937-1.705 0-3.08 1.221-3.08 2.937Zm1.419 0c0-1.034.759-1.749 1.672-1.749.902 0 1.661.715 1.661 1.749 0 1.045-.759 1.749-1.661 1.749-.913 0-1.672-.704-1.672-1.749ZM306.353 18h1.397v-2.574c0-.264.022-.517.099-.748.209-.671.759-1.144 1.507-1.144.715 0 .891.462.891 1.144V18h1.386v-3.608c0-1.485-.704-2.134-1.947-2.134-1.133 0-1.749.693-1.991 1.166h-.022s.022-.176.022-.385v-.649h-1.342V18Zm6.988-2.057c0 1.881 1.551 2.112 2.332 2.112.264 0 .429-.033.429-.033v-1.221s-.099.022-.253.022c-.385 0-1.111-.132-1.111-1.056v-2.178h1.276v-1.111h-1.276v-1.617h-1.364v1.617h-.759v1.111h.726v2.354Z"/><path fill="#000" d="M201.642 70.331v1.538c0 .358-.111.648-.332.87.227.253.341.53.341.83v1.6a.793.793 0 0 1-.244.582.808.808 0 0 1-.586.24h-2.9a.407.407 0 0 1-.293-.118.408.408 0 0 1-.117-.293c0-.114.039-.21.117-.288a.399.399 0 0 1 .293-.122h2.891v-1.602a.398.398 0 0 0-.123-.293.376.376 0 0 0-.288-.127h-1.65a.398.398 0 0 1-.41-.41c0-.114.039-.21.117-.288a.399.399 0 0 1 .293-.122h1.66a.4.4 0 0 0 .288-.117.397.397 0 0 0 .122-.293v-1.587h-2.929a.407.407 0 0 1-.293-.117.41.41 0 0 1-.118-.293c0-.114.04-.21.118-.288a.399.399 0 0 1 .293-.122h2.929c.228 0 .422.081.581.244.16.16.24.351.24.576Zm1.894-.049v-.351c0-.114.039-.21.117-.288a.4.4 0 0 1 .293-.123h3.721v2.52c0 .133-.05.244-.151.332l-1.509 1.29v1.908a.418.418 0 0 1-.122.298.415.415 0 0 1-.586 0 .392.392 0 0 1-.122-.288v-2.07c0-.157.049-.277.146-.362l1.514-1.279v-1.528h-2.481c-.058.234-.195.351-.41.351a.41.41 0 0 1-.293-.117.408.408 0 0 1-.117-.293Zm9.785 5.699h-.41a.4.4 0 0 1-.288-.118.401.401 0 0 1-.122-.293c0-.114.039-.21.117-.288a.4.4 0 0 1 .293-.122v-2.71h-2.89a.396.396 0 0 1-.289-.122.395.395 0 0 1-.122-.288v-2.129c0-.11.041-.207.122-.288a.397.397 0 0 1 .289-.122h3.3c.111 0 .207.04.288.122a.392.392 0 0 1 .122.288v5.66c0 .113-.04.21-.122.292a.391.391 0 0 1-.288.118Zm-.4-4.36v-1.29h-2.49v1.29h2.49Zm6.445 4.36h-.41a.4.4 0 0 1-.288-.118.401.401 0 0 1-.122-.293c0-.114.039-.21.117-.288a.399.399 0 0 1 .293-.122v-2.71h-2.891a.396.396 0 0 1-.288-.122.395.395 0 0 1-.122-.288v-2.129c0-.11.041-.207.122-.288a.396.396 0 0 1 .288-.122h3.301c.111 0 .207.04.288.122a.392.392 0 0 1 .122.288v5.66c0 .113-.04.21-.122.292a.391.391 0 0 1-.288.118Zm-.4-4.36v-1.29h-2.49v1.29h2.49Zm12.49 4.36h-.41a.4.4 0 0 1-.288-.118.397.397 0 0 1-.122-.293c0-.114.039-.21.117-.288a.399.399 0 0 1 .293-.122v-2.71h-2.891a.396.396 0 0 1-.288-.122.395.395 0 0 1-.122-.288v-2.129c0-.11.041-.207.122-.288a.396.396 0 0 1 .288-.122h3.301c.111 0 .207.04.288.122a.392.392 0 0 1 .122.288v5.66c0 .113-.04.21-.122.292a.391.391 0 0 1-.288.118Zm-.4-4.36v-1.29h-2.491v1.29h2.491Zm3.105 3.549h1.26V70.33h-1.24a.407.407 0 0 1-.293-.117.409.409 0 0 1-.117-.293c0-.114.039-.21.117-.288a.399.399 0 0 1 .293-.122h2.06v5.659h.821v-1.71c0-.11.039-.206.117-.287a.399.399 0 0 1 .293-.122c.114 0 .21.04.288.122a.385.385 0 0 1 .122.288v2.12a.4.4 0 0 1-.122.292.39.39 0 0 1-.288.117h-3.311a.4.4 0 0 1-.293-.122.426.426 0 0 1-.117-.298c0-.11.039-.205.117-.283a.41.41 0 0 1 .293-.117Zm5.635-.01v-2.002c0-.224.081-.416.244-.576a.8.8 0 0 1 .586-.244V69.92c0-.114.039-.21.117-.288a.39.39 0 0 1 .293-.122h1.67c.114 0 .21.04.288.122a.381.381 0 0 1 .122.288v2.417c.222 0 .414.08.576.24.163.155.245.35.245.58v2.012a.794.794 0 0 1-.245.581.793.793 0 0 1-.576.24h-2.49a.79.79 0 0 1-.591-.255.82.82 0 0 1-.239-.576Zm1.65-4.829v2.007h.85V70.33h-.85Zm-.82 2.827v2.012h2.49v-2.012h-2.49Zm5.225 2.041v-4.907c0-.215.078-.4.234-.557a.76.76 0 0 1 .557-.234h2.558c.212 0 .394.078.547.234a.76.76 0 0 1 .234.557v4.907a.767.767 0 0 1-.234.562.757.757 0 0 1-.557.23h-2.548a.764.764 0 0 1-.562-.23.774.774 0 0 1-.229-.562Zm3.32-.03v-4.838h-2.5v4.839h2.5Zm2.725.03v-4.907c0-.215.078-.4.234-.557a.76.76 0 0 1 .557-.234h2.558c.212 0 .394.078.547.234a.76.76 0 0 1 .234.557v4.907a.767.767 0 0 1-.234.562.759.759 0 0 1-.557.23h-2.548a.764.764 0 0 1-.562-.23.774.774 0 0 1-.229-.562Zm3.32-.03v-4.838h-2.5v4.839h2.5Zm2.724.03v-4.907c0-.215.079-.4.235-.557a.76.76 0 0 1 .556-.234h2.559c.212 0 .394.078.547.234a.76.76 0 0 1 .234.557v4.907a.767.767 0 0 1-.234.562.759.759 0 0 1-.557.23h-2.549a.763.763 0 0 1-.561-.23.775.775 0 0 1-.23-.562Zm3.321-.03v-4.838h-2.5v4.839h2.5Zm9.17 0h1.259v-4.838h-1.24a.41.41 0 0 1-.293-.117.409.409 0 0 1-.117-.293c0-.114.039-.21.117-.288a.4.4 0 0 1 .293-.122h2.061v5.659h.82v-1.71c0-.11.039-.206.117-.287a.4.4 0 0 1 .293-.122c.114 0 .21.04.288.122a.381.381 0 0 1 .122.288v2.12c0 .113-.04.21-.122.292a.39.39 0 0 1-.288.117h-3.31a.4.4 0 0 1-.293-.122.426.426 0 0 1-.117-.298c0-.11.039-.205.117-.283a.407.407 0 0 1 .293-.117Zm9.384.821h-3.73v-2.832c0-.228.08-.423.239-.586a.795.795 0 0 1 .581-.244h2.491v-1.997h-2.93a.398.398 0 0 1-.41-.41c0-.114.039-.21.117-.288a.39.39 0 0 1 .293-.122h2.93c.227 0 .423.081.585.244.163.16.245.351.245.576v1.997a.805.805 0 0 1-.245.59.805.805 0 0 1-.585.24h-2.491v2.012h2.91c.111 0 .207.04.289.122a.385.385 0 0 1 .122.288.4.4 0 0 1-.122.293.404.404 0 0 1-.289.117Zm6.456-5.659v1.538c0 .358-.111.648-.333.87.228.253.342.53.342.83v1.6a.793.793 0 0 1-.244.582.808.808 0 0 1-.586.24h-2.9a.407.407 0 0 1-.293-.118.408.408 0 0 1-.117-.293c0-.114.039-.21.117-.288a.399.399 0 0 1 .293-.122h2.89v-1.602a.397.397 0 0 0-.122-.293.376.376 0 0 0-.288-.127h-1.65a.398.398 0 0 1-.41-.41c0-.114.039-.21.117-.288a.399.399 0 0 1 .293-.122h1.66a.4.4 0 0 0 .288-.117.397.397 0 0 0 .122-.293v-1.587h-2.929a.407.407 0 0 1-.293-.117.405.405 0 0 1-.118-.293c0-.114.039-.21.118-.288a.399.399 0 0 1 .293-.122h2.929c.228 0 .422.081.581.244.16.16.24.351.24.576Zm4.594 5.25v-1.71h-2.47v-3.95c0-.114.04-.212.122-.293a.406.406 0 0 1 .297-.127.39.39 0 0 1 .289.127c.081.081.122.179.122.293v3.12h1.64v-2.402c0-.114.039-.212.117-.293a.393.393 0 0 1 .293-.127c.114 0 .21.042.288.127a.398.398 0 0 1 .123.293v2.402c.113 0 .21.04.288.122a.385.385 0 0 1 .122.288.4.4 0 0 1-.122.293.392.392 0 0 1-.288.117v1.72a.398.398 0 0 1-.123.292.4.4 0 0 1-.288.117.409.409 0 0 1-.293-.117.408.408 0 0 1-.117-.293Zm4.864-.411h1.899v-2.012h-2.481v-3.647h2.891c.111 0 .207.04.288.122a.392.392 0 0 1 .122.288c0 .114-.04.211-.122.293a.391.391 0 0 1-.288.117h-2.06v2.007h1.65c.221 0 .413.081.576.244a.787.787 0 0 1 .244.576v2.012a.793.793 0 0 1-.244.581.784.784 0 0 1-.576.24h-1.899c-.17 0-.35-.041-.542-.123l-.621-.259c-.166-.068-.249-.198-.249-.39a.4.4 0 0 1 .113-.288.358.358 0 0 1 .273-.122c.082 0 .176.024.283.073l.542.23c.065.038.132.058.201.058Z"/><path fill="#354148" d="M44.882 130h1.089l2.86-7.766h-1.155l-1.947 5.489c-.143.418-.297 1.067-.297 1.067h-.022s-.154-.649-.297-1.067l-1.925-5.489H42.01L44.88 130Zm4.838-6.677h1.078v-1.089H49.72v1.089Zm.011 6.677h1.067v-5.566h-1.067V130Zm2.288-.682s.748.814 2.112.814c1.221 0 2.013-.693 2.013-1.617 0-1.826-2.86-1.606-2.86-2.607 0-.484.451-.682.913-.682.88 0 1.375.495 1.375.495l.43-.803s-.573-.616-1.794-.616c-1.11 0-2.013.572-2.013 1.584 0 1.815 2.86 1.606 2.86 2.629 0 .451-.462.693-.924.693-.968 0-1.595-.649-1.595-.649l-.517.759Zm4.93-.88c0 1.111.936 1.694 1.893 1.694 1.33 0 1.782-1.1 1.782-1.1h.022s-.022.187-.022.44V130h.99v-3.52c0-1.408-.792-2.178-2.2-2.178-1.276 0-2.08.66-2.08.66l.44.781s.694-.539 1.552-.539c.704 0 1.22.308 1.22 1.221v.099h-.241c-.935 0-3.355.077-3.355 1.914Zm1.079-.055c0-1.001 1.452-1.056 2.255-1.056h.275v.176c0 .825-.583 1.771-1.485 1.771-.693 0-1.045-.44-1.045-.891Zm4.745 2.079h.945l2.794-8.646h-.945l-2.794 8.646Zm4.865-.462h1.089l.374-4.895c.033-.473.022-1.166.022-1.166h.022s.242.748.418 1.166l1.54 3.498h.968l1.55-3.498c.188-.429.419-1.144.419-1.144h.022s-.022.671.01 1.144l.386 4.895h1.078l-.627-7.766h-1.144l-1.782 4.202c-.176.429-.385 1.045-.385 1.045h-.022s-.21-.616-.385-1.045l-1.782-4.202h-1.144L67.638 130Zm9.1-1.562c0 1.111.934 1.694 1.891 1.694 1.331 0 1.782-1.1 1.782-1.1h.022s-.022.187-.022.44V130h.99v-3.52c0-1.408-.792-2.178-2.2-2.178-1.276 0-2.079.66-2.079.66l.44.781s.693-.539 1.551-.539c.704 0 1.221.308 1.221 1.221v.099h-.242c-.935 0-3.355.077-3.355 1.914Zm1.077-.055c0-1.001 1.452-1.056 2.255-1.056h.275v.176c0 .825-.583 1.771-1.485 1.771-.693 0-1.045-.44-1.045-.891Zm4.734.935s.748.814 2.112.814c1.22 0 2.013-.693 2.013-1.617 0-1.826-2.86-1.606-2.86-2.607 0-.484.45-.682.913-.682.88 0 1.375.495 1.375.495l.429-.803s-.572-.616-1.793-.616c-1.111 0-2.013.572-2.013 1.584 0 1.815 2.86 1.606 2.86 2.629 0 .451-.462.693-.924.693-.968 0-1.595-.649-1.595-.649l-.517.759Zm5.612-1.353c0 1.859 1.42 2.079 2.134 2.079.22 0 .374-.022.374-.022v-.946s-.099.022-.253.022c-.407 0-1.188-.143-1.188-1.254v-2.475h1.342v-.858h-1.342v-1.606h-1.034v1.606h-.759v.858h.726v2.596Zm3.327-.748c0 1.65 1.199 2.915 2.948 2.915 1.33 0 2.156-.792 2.156-.792l-.44-.781s-.693.649-1.65.649c-.99 0-1.86-.616-1.914-1.837h4.059s.033-.319.033-.462c0-1.441-.836-2.607-2.41-2.607-1.583 0-2.782 1.144-2.782 2.915Zm1.133-.649c.154-.913.814-1.419 1.628-1.419.715 0 1.309.462 1.342 1.419h-2.97ZM97.974 130h1.067v-2.277c0-.341.033-.682.132-1.001.253-.825.88-1.309 1.562-1.309.165 0 .308.033.308.033v-1.056s-.132-.022-.275-.022c-.858 0-1.507.638-1.76 1.452h-.022s.022-.187.022-.418v-.968h-1.034V130Zm3.697-2.783c0 1.672 1.232 2.915 2.981 2.915 1.452 0 2.222-.891 2.222-.891l-.429-.781s-.682.748-1.716.748c-1.155 0-1.969-.869-1.969-2.002 0-1.144.814-1.98 1.936-1.98.946 0 1.54.638 1.54.638l.506-.748s-.693-.814-2.09-.814c-1.749 0-2.981 1.265-2.981 2.915Zm5.961 1.221c0 1.111.935 1.694 1.892 1.694 1.331 0 1.782-1.1 1.782-1.1h.022s-.022.187-.022.44V130h.99v-3.52c0-1.408-.792-2.178-2.2-2.178-1.276 0-2.079.66-2.079.66l.44.781s.693-.539 1.551-.539c.704 0 1.221.308 1.221 1.221v.099h-.242c-.935 0-3.355.077-3.355 1.914Zm1.078-.055c0-1.001 1.452-1.056 2.255-1.056h.275v.176c0 .825-.583 1.771-1.485 1.771-.693 0-1.045-.44-1.045-.891Zm5.184 1.617h1.067v-2.277c0-.341.033-.682.132-1.001.253-.825.88-1.309 1.562-1.309.165 0 .308.033.308.033v-1.056s-.132-.022-.275-.022c-.858 0-1.507.638-1.76 1.452h-.022s.022-.187.022-.418v-.968h-1.034V130Zm3.762-2.783c0 1.727.946 2.915 2.453 2.915 1.375 0 1.826-1.034 1.826-1.034h.022s-.011.154-.011.374V130h1.012v-7.766h-1.067v2.574c0 .209.022.374.022.374h-.022s-.429-.88-1.716-.88c-1.474 0-2.519 1.144-2.519 2.915Zm1.089 0c0-1.265.726-1.991 1.606-1.991 1.056 0 1.573.99 1.573 1.98 0 1.419-.781 2.002-1.606 2.002-.924 0-1.573-.781-1.573-1.991Zm5.441 3.245h.946l2.794-8.646h-.946l-2.794 8.646Zm4.381-2.695c0 1.672 1.166 2.365 2.299 2.365s2.31-.682 2.31-2.365v-5.533h-3.047v.946h1.958v4.576c0 1.023-.605 1.375-1.21 1.375-.616 0-1.232-.363-1.232-1.419v-.33h-1.078v.385Zm6.106-1.694c0 2.277 1.639 4.059 3.971 4.059 1.947 0 3.014-1.232 3.014-1.232l-.583-.781s-.935 1.012-2.398 1.012c-1.727 0-2.882-1.408-2.882-3.069 0-1.65 1.133-2.97 2.871-2.97 1.342 0 2.244.847 2.244.847l.539-.814s-.957-1.023-2.827-1.023c-2.255 0-3.949 1.716-3.949 3.971Zm8.466 3.927h2.783c1.364 0 2.497-.748 2.497-2.211 0-.869-.462-1.639-1.276-1.881v-.022c.594-.308.968-.913.968-1.672 0-1.254-.946-1.98-2.255-1.98h-2.717V130Zm1.089-4.499v-2.321h1.606c.748 0 1.166.462 1.166 1.144 0 .682-.44 1.177-1.144 1.177h-1.628Zm0 3.553v-2.651h1.738c.814 0 1.342.539 1.342 1.331 0 .792-.495 1.32-1.331 1.32h-1.749ZM188.841 132h1.133l-2.794-7.766h-1.144L183.242 132h1.122l.77-2.233h2.926l.781 2.233Zm-2.222-6.699s.165.704.297 1.1l.858 2.464h-2.354l.869-2.464c.132-.396.308-1.1.308-1.1h.022Zm4.279 6.699h1.067v-2.541c0-.253.011-.506.066-.726.209-.792.781-1.463 1.595-1.463.858 0 .968.671.968 1.397V132h1.067v-2.541c0-.286.022-.539.077-.77.198-.759.781-1.419 1.562-1.419.836 0 .99.616.99 1.397V132h1.067v-3.564c0-1.419-.583-2.134-1.837-2.134-.902 0-1.672.594-1.98 1.265h-.022c-.187-.836-.737-1.265-1.672-1.265-.869 0-1.65.627-1.914 1.276h-.022s.022-.187.022-.407v-.737h-1.034V132Zm9.669-2.783c0 1.65 1.199 2.915 2.948 2.915 1.331 0 2.156-.792 2.156-.792l-.44-.781s-.693.649-1.65.649c-.99 0-1.859-.616-1.914-1.837h4.059s.033-.319.033-.462c0-1.441-.836-2.607-2.409-2.607-1.584 0-2.783 1.144-2.783 2.915Zm1.133-.649c.154-.913.814-1.419 1.628-1.419.715 0 1.309.462 1.342 1.419h-2.97Zm5.354 3.432h1.067v-2.277c0-.341.033-.682.132-1.001.253-.825.88-1.309 1.562-1.309.165 0 .308.033.308.033v-1.056s-.132-.022-.275-.022c-.858 0-1.507.638-1.76 1.452h-.022s.022-.187.022-.418v-.968h-1.034V132Zm4.114-6.677h1.078v-1.089h-1.078v1.089Zm.011 6.677h1.067v-5.566h-1.067V132Zm2.343-2.783c0 1.672 1.232 2.915 2.981 2.915 1.452 0 2.222-.891 2.222-.891l-.429-.781s-.682.748-1.716.748c-1.155 0-1.969-.869-1.969-2.002 0-1.144.814-1.98 1.936-1.98.946 0 1.54.638 1.54.638l.506-.748s-.693-.814-2.09-.814c-1.749 0-2.981 1.265-2.981 2.915Zm5.961 1.221c0 1.111.935 1.694 1.892 1.694 1.331 0 1.782-1.1 1.782-1.1h.022s-.022.187-.022.44V132h.99v-3.52c0-1.408-.792-2.178-2.2-2.178-1.276 0-2.079.66-2.079.66l.44.781s.693-.539 1.551-.539c.704 0 1.221.308 1.221 1.221v.099h-.242c-.935 0-3.355.077-3.355 1.914Zm1.078-.055c0-1.001 1.452-1.056 2.255-1.056h.275v.176c0 .825-.583 1.771-1.485 1.771-.693 0-1.045-.44-1.045-.891Zm5.184 1.617h1.067v-2.607c0-.275.022-.528.088-.748.231-.803.913-1.364 1.76-1.364.891 0 1.056.616 1.056 1.397V132h1.067v-3.564c0-1.419-.605-2.134-1.914-2.134-1.21 0-1.87.792-2.09 1.276h-.022s.022-.187.022-.407v-.737h-1.034V132Zm9.673 0h4.697v-.946h-3.608v-2.497h2.783v-.946h-2.783v-2.431h3.421v-.946h-4.51V132Zm8.055-2.167s.088.176.165.308l1.166 1.859h1.21l-1.892-2.86 1.793-2.706h-1.221l-1.034 1.694c-.088.143-.187.33-.187.33h-.022s-.099-.187-.187-.33l-1.034-1.694h-1.221l1.793 2.706-1.892 2.86h1.21l1.166-1.859c.077-.132.165-.308.165-.308h.022Zm3.617 4.367h1.067v-2.497a4.85 4.85 0 0 0-.022-.484h.022s.484.913 1.705.913c1.452 0 2.519-1.144 2.519-2.915 0-1.727-.946-2.915-2.442-2.915-1.397 0-1.87 1.012-1.87 1.012h-.022s.022-.187.022-.407v-.473h-.979v7.766Zm1.034-4.961c0-1.419.77-2.002 1.606-2.002.924 0 1.573.781 1.573 1.991 0 1.265-.726 1.991-1.606 1.991-1.023 0-1.573-.99-1.573-1.98Zm5.562 2.761h1.067v-2.277c0-.341.033-.682.132-1.001.253-.825.88-1.309 1.562-1.309.165 0 .308.033.308.033v-1.056s-.132-.022-.275-.022c-.858 0-1.507.638-1.76 1.452h-.022s.022-.187.022-.418v-.968h-1.034V132Zm3.707-2.783c0 1.65 1.199 2.915 2.948 2.915 1.331 0 2.156-.792 2.156-.792l-.44-.781s-.693.649-1.65.649c-.99 0-1.859-.616-1.914-1.837h4.059s.033-.319.033-.462c0-1.441-.836-2.607-2.409-2.607-1.584 0-2.783 1.144-2.783 2.915Zm1.133-.649c.154-.913.814-1.419 1.628-1.419.715 0 1.309.462 1.342 1.419h-2.97Zm4.903 2.75s.748.814 2.112.814c1.221 0 2.013-.693 2.013-1.617 0-1.826-2.86-1.606-2.86-2.607 0-.484.451-.682.913-.682.88 0 1.375.495 1.375.495l.429-.803s-.572-.616-1.793-.616c-1.111 0-2.013.572-2.013 1.584 0 1.815 2.86 1.606 2.86 2.629 0 .451-.462.693-.924.693-.968 0-1.595-.649-1.595-.649l-.517.759Zm4.931 0s.748.814 2.112.814c1.221 0 2.013-.693 2.013-1.617 0-1.826-2.86-1.606-2.86-2.607 0-.484.451-.682.913-.682.88 0 1.375.495 1.375.495l.429-.803s-.572-.616-1.793-.616c-1.111 0-2.013.572-2.013 1.584 0 1.815 2.86 1.606 2.86 2.629 0 .451-.462.693-.924.693-.968 0-1.595-.649-1.595-.649l-.517.759Zm9.449 1.727h.935a9.877 9.877 0 0 1-1.243-4.774c0-1.551.44-3.014 1.243-4.356h-.935c-.814 1.298-1.276 2.761-1.276 4.345 0 1.771.484 3.465 1.276 4.785Zm6.928-1.045h1.133l-2.794-7.766h-1.144L279.138 132h1.122l.77-2.233h2.926l.781 2.233Zm-2.222-6.699s.165.704.297 1.1l.858 2.464h-2.354l.869-2.464c.132-.396.308-1.1.308-1.1h.022Zm4.256 6.699h1.089l.374-4.895c.033-.473.022-1.166.022-1.166h.022s.242.748.418 1.166l1.54 3.498h.968l1.551-3.498c.187-.429.418-1.144.418-1.144h.022s-.022.671.011 1.144l.385 4.895h1.078l-.627-7.766h-1.144l-1.782 4.202a22.162 22.162 0 0 0-.385 1.045h-.022s-.209-.616-.385-1.045l-1.782-4.202h-1.144l-.627 7.766Zm9.77 0h4.697v-.946h-3.608v-2.497h2.783v-.946h-2.783v-2.431h3.421v-.946h-4.51V132Zm5.492 0h1.221l1.408-2.387c.253-.429.462-.891.462-.891h.022s.242.451.495.891l1.408 2.387h1.232l-2.453-4.004 2.299-3.762h-1.254l-1.221 2.101c-.253.429-.473.924-.473.924h-.022s-.253-.506-.495-.924l-1.221-2.101h-1.254l2.299 3.762-2.453 4.004Zm7.736 1.045c.792-1.32 1.276-3.014 1.276-4.785 0-1.584-.462-3.047-1.276-4.345h-.935c.803 1.342 1.243 2.805 1.243 4.356a9.877 9.877 0 0 1-1.243 4.774h.935Z"/><defs><linearGradient id="paint0_linear_836_30670" x1="26.558" x2="163.5" y1="66.419" y2="66.419" gradientUnits="userSpaceOnUse"><stop stop-color="#DCE4EF"/><stop offset=".505" stop-color="#EDF0F3" stop-opacity=".53"/><stop offset="1" stop-color="#DCE4EF"/></linearGradient><linearGradient id="paint1_linear_836_30670" x1="26.558" x2="163.5" y1="64.608" y2="64.608" gradientUnits="userSpaceOnUse"><stop offset=".13" stop-color="#E3E3E1" stop-opacity=".61"/><stop offset=".505" stop-color="#E9C782"/><stop offset=".897" stop-color="#E3E5E6"/></linearGradient><linearGradient id="paint2_linear_836_30670" x1="26.558" x2="163.5" y1="68.231" y2="68.231" gradientUnits="userSpaceOnUse"><stop offset=".13" stop-color="#E3E3E1" stop-opacity=".61"/><stop offset=".505" stop-color="#E9C782"/><stop offset=".897" stop-color="#E3E5E6"/></linearGradient><linearGradient id="paint3_linear_836_30670" x1="26.558" x2="163.5" y1="71.854" y2="71.854" gradientUnits="userSpaceOnUse"><stop offset=".13" stop-color="#E3E3E1" stop-opacity=".61"/><stop offset=".505" stop-color="#E9C782"/><stop offset=".897" stop-color="#E3E5E6"/></linearGradient><linearGradient id="paint4_linear_836_30670" x1="26.558" x2="163.5" y1="75.477" y2="75.477" gradientUnits="userSpaceOnUse"><stop offset=".13" stop-color="#E3E3E1" stop-opacity=".61"/><stop offset=".505" stop-color="#E9C782"/><stop offset=".897" stop-color="#E3E5E6"/></linearGradient><linearGradient id="paint5_linear_836_30670" x1="26.558" x2="163.5" y1="79.1" y2="79.1" gradientUnits="userSpaceOnUse"><stop offset=".13" stop-color="#E3E3E1" stop-opacity=".61"/><stop offset=".505" stop-color="#E9C782"/><stop offset=".897" stop-color="#E3E5E6"/></linearGradient><linearGradient id="paint6_linear_836_30670" x1="26.558" x2="163.5" y1="70.042" y2="70.042" gradientUnits="userSpaceOnUse"><stop stop-color="#DCE4EF"/><stop offset=".505" stop-color="#EDF0F3" stop-opacity=".53"/><stop offset="1" stop-color="#DCE4EF"/></linearGradient><linearGradient id="paint7_linear_836_30670" x1="26.558" x2="163.5" y1="73.665" y2="73.665" gradientUnits="userSpaceOnUse"><stop stop-color="#DCE4EF"/><stop offset=".505" stop-color="#EDF0F3" stop-opacity=".53"/><stop offset="1" stop-color="#DCE4EF"/></linearGradient><linearGradient id="paint8_linear_836_30670" x1="26.558" x2="163.5" y1="77.288" y2="77.288" gradientUnits="userSpaceOnUse"><stop stop-color="#DCE4EF"/><stop offset=".505" stop-color="#EDF0F3" stop-opacity=".53"/><stop offset="1" stop-color="#DCE4EF"/></linearGradient></defs></svg>